<?xml version="1.0" standalone="no"?>
<!DOCTYPE svg PUBLIC "-//W3C//DTD SVG 20010904//EN"
 "http://www.w3.org/TR/2001/REC-SVG-20010904/DTD/svg10.dtd">
<svg version="1.0" xmlns="http://www.w3.org/2000/svg"
 width="500.000000pt" height="500.000000pt" viewBox="0 0 500.000000 500.000000"
 preserveAspectRatio="xMidYMid meet">
<metadata>
Created by potrace 1.16, written by Peter Selinger 2001-2019
</metadata>
<g transform="translate(0.000000,500.000000) scale(0.100000,-0.100000)"
fill="#000000" stroke="none">
<path d="M0 2500 l0 -2500 2500 0 2500 0 0 2500 0 2500 -2500 0 -2500 0 0
-2500z m3050 915 c523 -524 546 -544 577 -541 32 4 33 3 33 -32 0 -33 9 -46
80 -117 l80 -80 0 112 0 111 73 4 c39 2 75 2 80 0 4 -2 7 -181 7 -398 l0 -394
-217 0 -218 0 -522 -522 -523 -523 -550 550 c-538 538 -549 549 -569 531 -25
-23 -87 -45 -126 -46 -91 -1 -166 52 -190 133 -19 63 -22 482 -5 547 13 49 54
99 97 116 44 19 134 18 184 -2 l41 -17 556 557 c307 306 559 556 562 556 3 0
250 -245 550 -545z m-2524 -550 c62 -11 104 -87 103 -190 0 -53 -23 -117 -49
-134 -20 -13 -20 -14 10 -47 16 -18 32 -51 35 -71 4 -21 8 -45 10 -53 1 -8 3
66 4 165 1 197 8 238 48 286 36 42 79 59 151 59 81 0 140 -31 170 -90 22 -44
23 -50 20 -321 l-3 -276 -27 -41 c-86 -129 -299 -98 -343 51 -8 28 -16 62 -16
76 -1 14 -5 0 -10 -33 -10 -67 -32 -110 -72 -140 -25 -19 -45 -21 -173 -24
l-144 -3 0 394 c0 216 2 396 4 398 7 6 244 1 282 -6z m3759 -4 c51 -23 74 -49
89 -102 l13 -43 7 37 c8 45 49 95 93 113 39 17 130 18 170 3 63 -24 113 -107
113 -191 l0 -28 -80 0 -80 0 0 28 c0 38 -13 54 -41 50 -19 -2 -25 -10 -27 -35
-3 -28 7 -42 96 -131 122 -123 136 -153 130 -279 -4 -100 -32 -164 -80 -189
-67 -35 -186 -25 -242 19 -16 13 -35 44 -45 75 l-18 53 -6 -36 c-10 -58 -49
-102 -109 -120 -88 -26 -155 -14 -213 37 -59 51 -67 100 -63 376 3 231 4 239
28 287 19 38 36 56 70 73 55 28 138 29 195 3z"/>
<path d="M1943 3388 l-551 -553 16 -25 c9 -14 20 -26 24 -28 3 -2 7 -127 8
-279 0 -152 3 -280 6 -285 3 -4 1 -8 -3 -8 -5 0 -14 -15 -21 -32 -11 -30 -10
-35 18 -63 l30 -30 0 365 c0 201 0 379 0 397 0 28 3 31 31 29 16 -1 32 1 35 5
3 5 11 6 18 3 7 -3 26 -6 42 -7 l29 -2 5 -139 5 -139 24 108 c13 60 27 123 32
140 l9 33 78 -5 c42 -3 77 -6 78 -7 1 0 -18 -81 -42 -179 l-44 -179 54 -214
54 -214 -83 0 -83 0 -21 93 c-11 50 -29 128 -40 172 l-19 80 -1 -172 -1 -172
-75 -3 -75 -3 510 -510 510 -510 510 510 c280 280 505 512 499 515 -6 4 -10
145 -9 395 0 384 3 417 32 399 4 -3 13 -2 19 2 7 4 -201 219 -517 535 -291
291 -531 529 -534 529 -3 0 -253 -249 -557 -552z m451 33 c21 -5 51 -22 67
-37 l29 -28 0 -138 0 -138 -42 30 c-22 16 -50 30 -62 30 -12 0 -31 3 -43 6
-22 6 -23 10 -23 145 0 155 -4 148 74 130z m286 -131 l0 -140 -27 -5 c-16 -4
-39 -9 -52 -11 -14 -3 -37 -14 -52 -25 -15 -10 -30 -19 -33 -19 -3 0 -6 60 -6
133 l0 133 30 29 c16 15 46 31 67 35 79 16 73 26 73 -130z m-535 -429 c77 -35
104 -91 105 -218 l0 -83 -80 0 -80 0 0 63 c0 90 -7 109 -38 105 -18 -2 -28
-11 -33 -28 -9 -33 -9 -418 0 -450 4 -14 15 -27 26 -29 32 -6 45 27 45 116 l0
83 81 0 81 0 -3 -112 c-3 -91 -8 -120 -25 -148 -28 -48 -75 -77 -138 -85 -95
-12 -169 22 -206 96 -18 35 -20 59 -20 302 0 262 0 263 25 314 20 39 36 56 68
72 53 27 137 27 192 2z m398 5 c42 -17 83 -66 97 -114 16 -60 13 -488 -5 -548
-19 -64 -65 -109 -127 -124 -97 -25 -183 9 -225 89 -22 43 -23 51 -23 310 0
257 1 268 23 311 29 59 88 90 169 90 32 0 73 -6 91 -14z m287 -134 l0 -143 38
3 37 3 1 139 0 140 77 0 77 1 0 -397 0 -398 -77 0 -78 0 3 180 4 180 -41 0
-41 0 0 -180 0 -180 -80 0 -80 0 0 393 c0 217 2 396 4 398 2 2 38 4 80 4 l76
0 0 -143z m543 134 c42 -17 83 -66 97 -114 17 -61 13 -488 -5 -549 -26 -89
-115 -143 -213 -129 -61 8 -98 31 -130 78 l-27 41 -3 276 c-3 271 -2 277 20
321 30 59 89 90 170 90 32 0 73 -6 91 -14z m-918 -1040 l35 -27 0 -141 0 -140
-22 16 c-38 27 -85 46 -118 46 l-30 0 0 141 0 142 50 -5 c33 -3 61 -14 85 -32z
m225 -105 l0 -138 -46 -6 c-26 -3 -61 -16 -82 -31 l-37 -26 -3 136 c-2 119 0
139 15 157 25 27 71 46 116 47 l37 0 0 -139z"/>
<path d="M2423 2718 c-11 -18 -16 -418 -6 -459 12 -45 48 -53 63 -14 11 28 14
425 4 463 -7 24 -47 31 -61 10z"/>
<path d="M3251 2712 c-12 -22 -14 -416 -3 -457 11 -41 48 -47 62 -10 11 28 14
425 4 463 -8 27 -49 30 -63 4z"/>
<path d="M3660 2500 l0 -285 80 80 80 79 -1 126 0 127 -80 79 -79 79 0 -285z"/>
<path d="M1242 2687 l-32 -33 1 -156 0 -155 35 -34 34 -33 0 222 c0 122 -1
222 -3 222 -2 0 -17 -15 -35 -33z"/>
<path d="M806 2715 c-12 -32 -7 -470 6 -483 19 -19 47 -14 53 11 3 12 4 126 3
252 l-3 230 -26 3 c-17 2 -29 -3 -33 -13z"/>
<path d="M400 2335 c0 -108 1 -115 20 -115 42 0 60 34 60 113 0 82 -16 117
-56 117 l-24 0 0 -115z"/>
<path d="M4156 2708 c-10 -40 -7 -448 4 -469 12 -21 45 -25 57 -6 6 10 11 72
13 175 0 8 23 12 80 12 73 0 80 -2 80 -20 0 -18 7 -20 75 -20 l75 0 0 -63 c0
-69 15 -101 45 -96 27 6 38 50 25 101 -9 32 -32 63 -95 128 -46 47 -95 105
-109 130 l-26 45 0 -32 0 -33 -77 0 -78 0 3 48 c5 74 -9 116 -40 120 -19 2
-27 -2 -32 -20z"/>
</g>
</svg>
